<svg id="Layer_1" data-name="Layer 1" xmlns="http://www.w3.org/2000/svg" viewBox="0 0 937.13 959.37"><defs><style>.cls-1{fill:#ff5757;}.cls-2{fill:#fff;}</style></defs><title>Artboard 6logo</title><circle class="cls-1" cx="468.57" cy="479.68" r="394.27"/><path class="cls-2" d="M438.84,691.93V638.58Q398.13,632,372,607.51T338.74,544h68.2q13.74,40.71,62.7,40.7,23.64,0,37.4-10.45t13.75-28.6q0-15.39-9.35-23.93t-30.8-13.47L426.74,495q-80.31-18.69-80.3-89.65,0-38.49,25.3-64.62t67.1-31.63V259.08h58.3v52.25q35.75,8.25,57.47,31.07t28.88,57.48H518Q505.38,363,459.74,363q-22,0-34.93,10.17t-12.92,27.23q0,25.86,35.2,35.2l57.2,13.75q82.5,20.36,82.5,92.4,0,39.06-24.48,64.62t-65.17,32.18v53.35Z"/></svg>