<?xml version="1.0" encoding="utf-8"?>
<!-- Generator: Adobe Illustrator 19.0.1, SVG Export Plug-In . SVG Version: 6.00 Build 0)  -->
<svg version="1.1" id="Layer_1" xmlns="http://www.w3.org/2000/svg" xmlns:xlink="http://www.w3.org/1999/xlink" x="0px" y="0px"
	 width="300px" height="203.8px" viewBox="0 0 300 203.8" style="enable-background:new 0 0 300 203.8;" xml:space="preserve">
<style type="text/css">
	.st0{fill-rule:evenodd;clip-rule:evenodd;}
	.st1{fill-rule:evenodd;clip-rule:evenodd;fill:#FFFFFF;}
</style>
<path class="st0" d="M160.4,0.5c-16.2,1.2-27.6,6.5-33.9,15.8c-3.8,5.6,1.3,15.2,1.9,16.2l0.1,0.2l0.3,0.5c-0.3,0.5-2.8,1.4-4.6,2.1
	c-5.5,2.1-13.8,5.2-18.4,13.8c-6.1,11.5-4.3,22.5,5.1,31c10.9,9.9,28.5,11.6,38,11.7c8.4,0.1,18.9,0.3,32.9-9.2
	c11.4-7.7,17.2-19,17.2-27.2c0-1.7-0.2-3.2-0.7-4.6c0,0-0.1-0.2-0.2-0.4c0.5-0.8,1.2-1.8,1.2-1.8c0.2-0.3,0.5-1.1,0.5-1.1
	c0-0.1,0.3-2,0.3-2c0-0.1-1-3.3-1-3.3c-0.1-0.1-0.3-0.5-0.3-0.5c-1.1-1.4-2.6-2.3-4.3-2.9c0.1,0,0.3-0.1,0.3-0.1l1.4-0.6
	c0.2-0.1,1.9-1.2,1.9-1.2c0.2-0.1,4.6-3.6,4.6-3.6c0,0,1.7-2.2,1.7-2.2c0.1-0.1,0.5-0.8,0.5-0.8l0.9-0.8l2.6-2.5
	c0,0,1.3-1.9,1.3-1.9c0.1-0.1,0.4-2.4,0.4-2.4c0-0.1-0.4-1.2-0.4-1.2l-0.1-0.4l-0.2-0.1l-0.6-0.6c0,0-0.7-0.3-0.8-0.3
	c0.4-0.6,0.6-1.3,0.6-1.9c0-0.7-0.3-1.4-0.8-2c-0.2-0.2-0.6-0.2-0.9-0.4c0.2-0.1,0.5-0.2,0.5-0.2c0.3-0.2,0.6-0.4,0.6-0.4l0.2-0.1
	l0.5-0.7l0.4-1.1l-0.1-0.9l-0.2-0.7l-0.3-0.4l-0.8-0.9c-0.3-0.2-0.7-0.4-0.7-0.4l-0.3-0.2l-0.7-0.1l-0.7,0l-1.1,0.3
	c0,0-0.6,0.5-0.6,0.5c0,0-0.6,0-0.6,0c0,0-1.3,0.1-1.3,0.1c-0.1,0-2,0.7-2,0.7l-0.4,0.2c0,0-1.5,0.4-1.5,0.4h-1.6
	c-0.3-1.1-0.6-2.3-0.6-2.3C192.1,1.3,182.5-1.2,160.4,0.5 M206.7,23.2C206.7,23.2,206.7,23.2,206.7,23.2L206.7,23.2z"/>
<path class="st1" d="M187.3,60.1c0.1-0.5,0-1,0.3-1.4c0-0.2-0.1-0.5-0.1-0.7c0.5-0.2,0.7-0.1,1,0.4c0.4,1.6-0.2,3.6-0.9,5
	c0,0.2,0,0.2,0.1,0.3c-1,1.7-3.6,3.2-5.2,1.7c0.1-0.4-0.3-0.5-0.3-0.7c0.5-0.6,1.4-0.5,2.1-0.9C185.7,62.9,186.6,61.6,187.3,60.1
	 M183.7,47.9c1.4-0.2,2.6-1,4-1.2c0,0.3,0.5-0.1,0.6,0.3c0,0.2,0,0.2,0,0.3c-0.2,0-0.2,0-0.4,0c-0.6,0.6-1.1,1.2-2,1.3
	c-0.2,0-0.1,0.1-0.3,0.2c-4,1.3-6.8,4.7-8.6,8.2c0,0.2,0,0.3,0.2,0.3c2.6-2.4,5.4-4.2,8.4-5.8c0,0.2,0,0.2,0.1,0.3
	c-2.5,2.7-5.9,4.6-8.4,7.3c-0.9,0.1-2.1,0.8-2.6-0.2c-0.3-2,0.6-4.1,2.1-5.5C178.7,51.2,181.1,49.3,183.7,47.9 M168.9,52.8
	c0.4-0.2,0.5-0.1,0.9-0.3c0.8-0.4,1.4-0.9,2.2-1.3c1.3-0.6,2.6-0.9,4-1.2c0.4-0.1,0.8-0.3,1.1,0c0.1,0.1,0.2,0.4,0.1,0.5
	c-0.1,0.1-0.7-0.1-0.7,0.1c-0.1,0.3-0.2,0.2-0.5,0.4c-0.4,0.3-1.3,0.3-1.7,0.6c-2.1,1.1-3.8,2.6-5.8,3.9c-0.5,0.4-1.2,0.7-1.3,1.4
	c0,0.2,0,0.3-0.1,0.5c-1.6,2.7-3.3,5.5-4.4,8.3c-0.1,0.2,0.1,0.4,0.2,0.3c1.3-1.3,1.9-3.2,3.6-4.2c0.3-0.2,0.4,0.5,0.3,0.8
	c-0.5,1.6-2.1,2.8-3.4,4.1c-0.4,0.4-2.2,1.6-2.4,0.8c-1.3-3.7,0.8-7.6,2.8-10.7C165.1,55.3,166.9,53.8,168.9,52.8 M161.2,57
	c0.2,0,0.4,0.2,0.2,0.3c-0.8,0.4-1.5,0.5-2.2,1.3c-0.1,0.2-0.3,0.1-0.5,0.2c-0.6,0.4-0.8,1.1-1.4,1.5c-0.2,0.1-0.3,0.1-0.5,0.2
	c-1.3,1.2-2.5,2.2-3.5,3.8c-0.6,1-0.9,2.1-1.4,3c-0.1,0.2,0.1,0.7,0.2,0.5c0.9-1,1.7-2,2.7-2.9c0.1-0.1,0.3,0.1,0.2,0.3
	c-0.3,1.4-1.5,2.6-2,3.8c-0.1,0.2-0.1,0.3-0.1,0.5c0,0.4-0.8,0.4-0.8,0.8c0,0.2,0,0.3-0.1,0.5c-0.4,0.7-1.6,1.4-2.5,1.3
	c-0.7-0.1-0.7-0.6-0.9-1.1c-0.5-1.8,0-3.8,0.5-5.5c0.4-1.3,1.3-2.4,2.2-3.5C154.2,59.9,157.2,57.4,161.2,57 M142,61.6
	c0.1-0.1,0.2,0.1,0.4,0c1.2-1.1,2.2-2.6,2.3-4.2c0.1-1-0.6-1.8-0.9-2.6c-0.3-0.7-1.1-0.9-2-1.1c-0.7-0.2-1.3-0.1-2,0.2
	c-0.3,0.2-0.4,0.7-0.8,0.8c-1.2,0.3-2,1.3-2.8,2.2c-0.2,0.2-0.4,0-0.5,0.2c-0.9,1.1-1,2.4-1.3,3.7c-0.2,0.8-0.2,1.3-0.4,2.1
	c-0.3,1.2-0.2,2.2,0.5,3.2c0.4,0.6,0.4,1.2,0.8,1.8c1.6,2,4,3.4,6.3,4.8c2.8,1.7,8.9,1.8,11.9,1.7c3.5-0.1,7.2-1,10-2.9
	c1.6-1.1,4.2-1.4,6-2.4c7.7-4.6,12.4-9.1,18.6-15c2.1-2,6.4-4.1,5.4-7.6c-0.7-2.6-9.1-0.6-10.4-0.2c-6.8,2.1-14,3.6-20.3,6.8
	c-2.7,1.3-5,3-7.3,5c-0.5,0.5-1.1,0.6-1.7,1.1c-0.6,0.4-1,1.1-1.6,1.6c-3.2,2.4-5.8,5.2-8.5,8c-0.5,0.5-1,1.1-1.6,1.6
	c-0.4,0.4-1.1-0.1-0.8-0.6c0.8-1.2,1.5-2.6,2.6-3.5c0.2-0.2,0.4,0,0.5-0.2c5.1-6.4,11.5-11.4,18.5-15.7c1.7-1.1,3.4-1.8,5.3-2.5
	c3.8-1.4,7.6-2.9,11.4-4.3c1.7-0.6,6.7-2.3,8.3-2c1.1,0.1,2.4-0.2,3.5-0.1c1,0.1,1.9,0.2,2.8,0.6c2,0.9,3.4,2.7,3.1,4.7
	c0,0-0.6,1.3-0.7,1.4c-2.3,3.8-4.8,5.4-8.1,8.1c-3.7,3-7,6.6-10.8,9.5c-1.8,1.3-3.5,2.4-5.3,3.5c-4.7,3-9.4,4.7-14.8,5.9
	c-4.7,1.1-9.8,1-14.5,0.3c-1-0.2-2.7-0.7-3.6-1.1c-2.3-0.9-4.4-2-6.2-3.6c-2.9-2.6-4.9-6.8-3.6-10.5c0.1-0.2-0.1-0.3-0.1-0.5
	c0.5-1.3,1-2.7,2-3.6c0.8-0.7,1.9-0.9,2.7-1.5c0.5-0.4,1.4-0.1,1.9-0.6c0.4,0.3,1.6-0.6,2.5-0.5c1.4,0.2,2.5-0.5,3.8-0.3
	c1,0.2,2,0.3,2.7,1c1,1,1.5,2.4,1.3,3.7c-0.3,1.6-1.4,3.2-2.8,4.2c-0.3,0.2-0.4,0.4-0.7,0.4c-1,0.3-2.3,1.1-3.4,0.6
	c-0.2-0.1,1-0.5,1-0.5C141,62.1,141.5,61.9,142,61.6 M138.3,38.5c0.8-0.5,1.4,0.7,2.1,0.9c1.1,0.4,2.3,0,2.9,0.8
	c0.1,0.1,0,0.2,0,0.3c0.2,0.3,0.8,0.2,1.2,0.5c0.1,0.1,0.1,0.2,0,0.3c-0.2,0.7-0.9,0.8-1.7,0.9c-0.6,0.1-0.7-0.5-1.2-0.7
	c-0.1-0.1-0.3,0.2-0.1,0.4c0.5,0.5,0.2,1.3-0.4,1.2c-1-0.1-2.1-0.5-2.4-1.4c-0.3-0.6,0.9-0.3,0.8-0.8c-0.1-0.5-0.8-0.6-1.1-1
	C138.4,39.6,137.6,38.9,138.3,38.5 M156.2,35.3c0.7-1.3,1.5-2.5,2.3-3.8c0.2,0,0.2,0,0.4,0c0.7,1.1-0.3,2.9-1.1,3.9
	c-0.2,1.4-0.9,2.5-1.6,3.6c-1.9,2.1-3.4,4.1-5.5,5.9c-1.1,1-3.3,1.9-3.5,2.1c-2.1,0.9-4.2,1-6.3,1.8c-0.6,0.2-1.3,0.4-1.8,0.2
	c-1-0.3-1.9-0.4-2.8-0.8c-1.2-0.5-2.1-1.5-3.2-2.1c-0.5-0.3-1.9-0.7-3.3-0.1c-1,0.4-2.1,0.6-3.1,1.1c-0.7,0.1-0.7,0.3-1,0.3
	c-0.5,0-3.1,1.3-3.6,1.8c-1.9,1.9-3.9,4.2-4.5,6.8c-0.4,1.8-0.7,3.6-0.5,5.5c0.2,2.4,0.4,4.6,1.5,6.8c2.2,4.1,4.4,6.2,8.7,8.7
	c0.5,0.3,1.1,0.4,1.6,0.6c1,0.6,1.7,1.3,2.8,1.7c4.5,1.8,9.3,3.2,14,4c5,0.8,10-0.1,14.8-1.2c3.4-0.8,6.7-2.1,9.8-3.8
	c2.5-1.3,4.3-2.9,6.6-4.4c0.6-0.4,3.9-3.6,4-4.1c0.1-0.9-0.2-1.8,0.2-2.6c0.4-0.8,2-1.1,2.3-0.3c0.5,1.2-1.7,3.8-2.6,4.6
	c-1.2,1.1-2.3,2.3-3.7,3.3c-0.5,0.4-1,1.2-1.6,1.6c-0.3,0.2-0.6,0.4-0.8,0.6c-1.1,1.1-3.9,2.5-5.4,3.2c-2.4,1.2-9.6,3.3-12.4,3.6
	c-2.3,0.2-4.4,1.1-6.7,1.3c-2.2,0.2-4.3,0.4-6.5,0.1c-1.7-0.1-3.5-0.3-5.4-0.5c-0.8-0.1-1.6-0.4-2.5-0.5c-2.4-0.5-4.4-1.3-6.7-2
	c-3.9-1.2-7.2-3.5-10.2-6.2c-1.3-1.2-2.6-2.3-3.6-3.8c-0.9-1.2-1.9-2.6-2.6-3.9c-0.1-0.2,0.2-0.4,0.1-0.5c-0.7-1.4-1.5-3-1.6-4.7
	c0-0.6-0.2-1.2-0.1-1.7c0.2-0.7,0.1-1.5,0.2-2.2c0.2-0.7,0.2-1.3,0.4-1.9c0.6-1.3,1.2-2.4,1.6-3.8c0.9-3,2.4-5.5,4.7-7.5
	c0.8-0.7,1.8-1.1,2.7-1.7c1.1-0.1,2.1-0.8,3.3-0.9c1.5-0.2,2.9-0.6,5.6-0.2c1.2,0.7,2.5,0.7,3.8,1.4c1.4,0.7,2.4,1.7,3.8,2.2
	c3.4,0.9,6.8-0.5,9.5-2.4C150.8,42,153.6,38.7,156.2,35.3 M153.7,31.9c-0.8-0.6-1.9-0.3-2.7-0.9c-0.2-0.3,0.1-0.7,0-1
	c1.5,0,3.1-0.2,4.6,0.3c1,0.5,1.5,1.5,1.1,2.6c-1.3,0.7-3-0.3-3-0.3C153.7,32.3,153.7,32.1,153.7,31.9 M159.5,27.5
	c0.3-0.2,0.1-0.7,0.7-0.5c1.3,0.6,2.1,1.8,3.4,2.3c4.1,1.5,8.2,2.9,12.6,3.5c2.4,0.3,4.1,0.3,6.6,0.2c4.3-0.2,8.4-1.2,12.6-2.2
	c1.6-0.4,3.8-1.3,5.1-2.2c1.9-1.5,3.8-3.1,5.9-4.6c0.3-0.2,0.3-0.9,0.7-1.1c0.4-0.3,0.3,0.8,0.2,1c-1,1.8-2.6,3-4.2,4.5
	c-0.9,0.8-1.2,2.1-2.2,2.9c-1.4,1.2-3,2.3-4.5,3.5c-2.1,1.8-4.9,2-7.5,3c-0.9,0.3-1.8,0.4-2.7,0.3c-3.7-0.6-7.7,0.5-12.1-0.6
	c-4.7-1.2-8.8-3.8-12.2-6.9C161,29.6,159.5,28.8,159.5,27.5 M147.5,23.6c0.3-1.2,1-2.2,2-3.1c2.1-1.8,7.4-3.7,10.6-3.2
	c1.2,0.2,2.3,0.3,3.4,0.4c0.9,0.1,3,1,3.9,1.4c1.3,0.4,2.5,1.4,3.9,2c1.5,0.7,3,1.1,4.7,1.6c3.1,0.8,7.1,1.1,10.3,0.8
	c1.1-0.1,1.9-0.7,3-0.7c0.8,0,1.6,0.1,2.4-0.1c2-0.4,4.2-0.5,6-1.2c2.2-0.8,4.4-2,6.6-2.7c0.5-0.1,1-0.3,1.3-0.7
	c0.2-0.1,0.3,0,0.2,0.1c-0.4,0.1,0.1,0.4-0.3,0.6c-1.2,0.5-1.8,1.7-3.1,2.1c-0.4,0.1-0.5,0.1-0.9,0.3c-1.9,1.3-3.9,2.6-5.6,4.2
	c-1.7,1.6-5.3,2-7.5,2.8c-1.4,0.5-2.6,0.6-4.2,0.9c-5,1-10.3-0.3-14.4-3.1c-3.8-2.7-8.1-5-12.7-5.6c-1.8-0.3-4-0.3-5.8,0.5
	c-1.4,0.6-2.3,1.8-2.8,3.2c-0.1,0.1-0.6,0.1-0.7,0.1C147.4,24.1,147.4,23.9,147.5,23.6 M140.2,13.1c1.7-1.2,3.5-2.1,5.3-3
	c1.4-0.7,2.8-0.8,4.1-1.4c1.1-0.5,1.9-0.6,3-0.7c5.6-0.5,11.3,0.8,16.8,2.2c2.4,0.6,4.7,0.7,6.9,1.5c0.4,0.1,0.6,0.4,1,0.5
	c1.5,0.6,3,0.6,4.5,1.3c1.2,0.6,2.7,0.9,4.1,1c3.9,0.3,8,0.1,12,0.2c1.5,0,2.7-0.7,4-1.2c1-0.4,2.2-0.2,3.2-0.4
	c0.2,0,0.4-0.3,0.6-0.6c0.2-0.3,1.1,0.5,0.3,0.8c-1,0.4-1.8,0.5-2.7,1c-2.4,1.3-6.2,2.6-8.8,3.9c-1,0.5-2,0.2-3.2,0.6
	c-2.6,0.7-5.4,1.2-8.1,0.9c-1.8-0.2-3.5-0.4-5.1-1c-2.4-0.9-4.5-1.6-6.9-2.4c-2.1-0.7-3.9-1.9-6-2.6c-0.3-0.1-2.1-0.7-2.5-0.8
	c-3-0.5-6.1-0.9-9.2-1.1c-2.3-0.1-8.9,2.3-10.4,3c-0.4,0.2-0.9,0.2-1.2,0.4c-0.7,0.4-1.2,0.9-1.9,1.3c-0.4,0.2-2.5,2.2-2.7,2.3
	c-0.5,0.5-1.3,1.2-1.4,1.9c-0.1,0.5,0.1,0.8,0.1,1.3c0,0.4-0.5,0.7-0.8,0.5c-0.3-0.2-0.1-0.6-0.2-0.8
	C135.2,18.4,137.2,15.1,140.2,13.1 M150.8,26.8c0,0,0.7-0.2,1.2-0.3c0.3,0.8-0.2,1.4-0.8,1.8c-2,2.8-3.5,5.7-4.7,8.9
	c-0.5,0.6-0.9,1.1-1.4,1.7c-1.4,0.5-2.6-0.5-3.9-0.7c-0.3-0.5-0.5-1,0-1.3c0.6,0.3,1.1,0.2,1.7,0.1c0.6,0.3,1.1,0.2,1.7,0.5
	c0.4-1.1,0-2.2,0.9-3c0.1-0.2,0-0.4,0.1-0.7c0.9-1.1,1.1-2.5,2-3.5C148.3,28.9,149.3,27.7,150.8,26.8 M139.9,27.2c0-0.2,0-0.2,0-0.3
	c0.3-0.5,0.6-0.2,1.1-0.1l0.2-0.2c0.8,0.2,1.6,0,2.4,0c1,0.4,2.1,0.6,2.8,1.5c0.2,0.5,0.1,1,0.2,1.7c-0.5,0.6-1.1,1-1.9,1.1
	c-0.5-0.8-2-0.9-1.8-2.1C141.8,28.2,140.6,28.1,139.9,27.2"/>
<path d="M232.1,182.5c3,0,5.5,2.3,5.5,5.5c0,3.2-2.6,5.5-5.5,5.5c-3,0-5.6-2.3-5.6-5.5C226.5,184.8,229.1,182.5,232.1,182.5
	 M232.1,183.4c-2.5,0-4.5,2-4.5,4.6c0,2.7,2,4.6,4.5,4.6c2.5,0,4.5-1.9,4.5-4.6C236.6,185.3,234.6,183.4,232.1,183.4 M230.9,191.1
	h-1v-6.3h2.4c1.5,0,2.2,0.6,2.2,1.8c0,1.1-0.7,1.6-1.7,1.7l1.8,2.8h-1.1l-1.7-2.7h-1.1V191.1z M230.9,187.6h1.1c1.2,0,1.6-0.3,1.6-1
	c0-0.6-0.3-0.9-1.4-0.9h-1.3V187.6z"/>
<path d="M83.3,183.9h11.7c4.6,0,7.6,1.3,7.6,5c0,2.5-1.2,3.4-2.3,4.1c1.4,0.6,3,2.2,3,4.8c0,3.7-2.9,5.7-7.7,5.7H83.3V183.9z
	 M95.3,191.6c2.5,0,3.6-0.6,3.6-2.3c0-1.7-1.1-2.3-3.6-2.3h-8.2v4.5H95.3z M95.4,200.2c2.4,0,4.2-0.5,4.2-2.8c0-2-1.7-2.7-4.2-2.7
	h-8.3v5.5H95.4z"/>
<path d="M113.6,183.9h11.7c4.6,0,7.9,1.1,7.9,5.8c0,3.6-2.6,5.6-5.4,5.7l6,7.9h-4.7l-5.6-7.7h-6v7.7h-3.8V183.9z M124.7,192.6
	c3.1,0,4.7-0.5,4.7-2.8c0-2.3-1.6-2.7-4.7-2.7h-7.3v5.5H124.7z"/>
<polygon points="143.8,183.9 161.3,183.9 161.3,187.2 147.6,187.2 147.6,191.7 159.4,191.7 159.4,195 147.6,195 147.6,200.1 
	161.6,200.1 161.6,203.4 143.8,203.4 "/>
<path d="M178.6,183.9h4.3l9.5,19.5h-4l-2-4.5h-11.2l-2.1,4.5h-4L178.6,183.9z M184.8,195.6l-4.1-8.7l-4.1,8.7H184.8z"/>
<path d="M201.3,183.9h9.4c6.2,0,11.1,2.6,11.1,9.6c0,6.6-4.5,9.8-10.9,9.8h-9.5V183.9z M209,200.1c6.5,0,9-2,9-6.5
	c0-4.8-2.6-6.4-9-6.4h-3.9v12.9H209z"/>
<path class="st0" d="M284.4,128.8c-8.7,0.5-16.2,5.6-22,11.7c-2.9,3-5.8,6.5-7.9,10.3c-0.9,1.5-3.3,6.5,0.3,6.1
	c2.3-0.2,4.5-1.4,6.5-2.7c2-1.3,4-2.6,5.9-4c3.8-2.7,7.6-5.6,10.8-9.1c1.5-1.7,2.8-3.5,4-5.4c0.8-1.4,1.7-2.7,2.7-3.8
	c1-1.1,2.3-2.4,3.9-2.5c0.8,0,1.5,0.4,2.2,0.7c0.9,0.4,1.7,0.8,2.5,1.4c3.7,2.8,2.1,8.5,1.5,12.4c-0.4,2.5-0.5,5-0.2,7.5
	c0.2,1.9,0.6,5.6,2.9,7.9c0.6,0.6,1.2,1,1.8,1.5c0.8,0.7-1,1.2-1.4,1.3c-4.1,0.7-6.1-0.3-7.6-1.4c-4.5-3.4-5.7-9.1-8.1-13.7
	c-3.9,3-7.9,5.9-12.1,8.5c-2.1,1.3-4.3,2.6-6.5,3.7c-2,1-4,2-6.2,2.6c-3.8,1-7.9,0.1-10.1-3.3c-2.1-3.3-1.2-7.8-0.3-11.3
	c0.9-3.5,2.1-6.9,4.1-9.9c2.3-3.5,5.5-6.5,8.9-8.9c5.7-4,12.6-6.4,19.6-6c1.8,0.1,4.1,0.3,5.5,1.5
	C287,125.1,285.6,127.4,284.4,128.8"/>
<path class="st0" d="M250.1,119.8c1.7,0.4,3.6,1.8,3.9,3.7c0.2,1.5-0.6,2.7-2.2,2.6c-1.5-0.1-2.9-0.9-4.4-1.1
	c-1.9-0.4-3.9,0.6-5.5,1.4c-3.7,1.8-6.7,4.9-9.2,8.1c-2.6,3.2-3.8,7.2-4.3,11.3c-0.3,2.6-0.5,5.1-1.1,7.7c-0.6,2.8-1.2,5.7-2.7,8.2
	c-1.4,2.3-3.7,3.5-6.4,2.6c-2.9-1-4.6-3.4-4.9-6.4c-0.4-3.3,0.4-6.7,1.2-9.8c0.9-3.1,2-6.2,2.9-9.3c1.2-4.2,1.8-8.8,2.1-13.2
	c0.1-1.3,0.1-2.6,0.1-3.9c0-0.8-0.2-1.7,0.1-2.5c0.2-0.8,1-0.4,1.5-0.1c1.4,1,2.5,2.6,3.5,4.1c0.8,1.3,1.9,2.9,2,4.5
	C232.7,121.9,241.8,118,250.1,119.8"/>
<path class="st0" d="M144.7,128.2c-0.8,0.3-4.4,3-5.5,4.3c-2,2.5-4.3,4.6-5.9,7.5c-1.4,2.5-2.7,5.5-3.9,8.1
	c-1.4,3.1-2.5,7.8-4.3,10.7c-1.6,2.7-4.2,3.5-7.3,2.9c-1.8-0.4-2.5-1.7-3.1-3.4c-0.7-2.2-0.8-4.6-0.6-6.9c0.5-4.8,2.4-9.2,4.1-13.7
	c0.9-2.5,1.7-5,2-7.6c0.2-1.6,0.2-2.9-1.2-3.9c-1-0.8-2.1-1.3-3.2-1.9c-1-0.6-2.5-1.2-3.1-2.2c-0.5-0.8,1.1-1.3,1.6-1.4
	c1.3-0.1,2.7,0.2,4,0.5c2.6,0.7,5.3,1.8,7.6,3.2c1.4,0.8,2.7,2,3.4,3.6c0.7,1.5,0.8,3.2,1,4.9c0.1,1.2-0.4,3.6,0,4.7
	c4.4-6.9,11.5-14,19.9-15.2c2.1-0.3,4.3,0.1,5.1,2.2c0.9,2.1,0.6,4.5,0,6.9c-0.6,2.5-1.6,6.2-2.1,8.2c-2.1,9.3-1.1,15,1.1,19.3
	c0.4,0.9,1.1,2.6,0.5,3.6c-0.4,0.7-1.4,0.3-1.9,0.1c-2.1-0.8-9.3-3-11.2-10.5c-2-8,3.3-21.6,3.9-23.1
	C146.1,128,145.5,127.9,144.7,128.2"/>
<path class="st0" d="M94.8,124.7c1,3.2-1.9,4.5-4.4,5.5c-4,1.5-7.6,4-11.1,6.5c-3.8,2.8-8,5.5-11.1,9.1c-1.6,1.8-3,3.7-4.3,5.6
	c-1.1,1.7-2.3,3.4-2.7,5.4c3.7,0.4,7.2-1.1,10.3-3c3.5-2.1,6.7-4.8,9.8-7.6c1.5-1.3,2.9-2.6,4.4-3.9c1.2-1.1,2.7-2,3.7-3.3
	c1-1.3,1.5-2.8,2.2-4.3c0.8-1.6,1.9-2.9,3.6-3.7c3.4-1.6,7.3,0.3,8.9,3.5c0.9,1.8,0.8,3.6,0.4,5.6c-0.5,2.2-1.3,4.4-1.6,6.7
	c-0.3,1.9-0.3,4.1,0.3,5.9c0.5,1.3,1.2,2.4,1.8,3.6c0.6,1.1,3.3,5.7,1.2,6.5c-3.9,0.6-8.1-2.6-10.8-5.1c-2.7-2.5-6.3-6.6-5.8-10.7
	c-3.9,3.1-7.9,6.1-12.1,8.7c-2.1,1.3-4.3,2.5-6.6,3.5c-2.1,0.9-4.3,1.8-6.5,2.1c-3.2,0.4-6.5-0.6-8.3-3.4c-1.9-2.8-2-6.5-1.2-9.7
	c1-4.1,3.2-8.1,5.8-11.4c2.6-3.5,5.8-6.6,9.5-9c2.5-1.6,5.3-2.8,8.1-3.8c2.9-1,5.9-1.8,8.9-2.2C89.6,121.6,93.8,121.5,94.8,124.7"/>
<path class="st0" d="M65.1,109.2c1.2,1.2-1.4,5.5-4.7,8.4c-4.3,3.8-14.2,10-26.8,13.9c-0.8-4.7-1.3-9.4-1.7-14.1c-0.2-2-0.4-4-0.5-6
	c-0.1-0.7-0.2-3.1,0.5-3.2C43.5,106.4,61.8,105.9,65.1,109.2 M70.7,102.7c1.8,1,3,2.9,3.5,4.9c0.5,2.1-0.2,7.6-9,13.7
	c-6.1,4.2-17.4,9.5-28.3,13.1c-0.5,0.2-1,0.4-1.6,0.6c-0.3,0.1-0.5,0.2-0.8,0.3c-0.5,0.2-0.5,0.2-0.4,0.8c0.3,2.7,0.9,5.4,1.6,8
	c0.5,1.8,1,3.6,1.7,5.4c0.5,1.4,1.1,2.9,1.6,4.4c0.8,2.6,1.8,6.2,0,8.6c-1,1.4-2.8,1.9-4.4,2.1c-2,0.3-4,0.1-5.8-0.6
	c-3.7-1.4-5.8-3.7-7.6-7.3c-2-4-0.6-23.2,0.4-28c0.5-2.6,0.9-5.2,1.4-7.7c0.4-2.3,2.3-11.7,1.9-11.9c-0.5-0.2-5,0.7-7.4,1.6
	c-1.9,0.7-3.4,1.9-5,3c-1.5,1-3.2,0.7-4.9,0c-3.8-1.4-6.8-4.9-7.6-9c-0.5-2.7,1.8-5.4,5.4-6.6c3.2-1.1,6.6-1.6,9.9-2
	C31.2,94,58.7,96.2,70.7,102.7"/>
<path class="st0" d="M199.8,132.8c-4.9,4.4-18.2,7.5-25.1,6c-0.7-1.7,2.3-3.7,3.4-4.5c2.2-1.6,4.6-3,7.1-3.9c3.4-1.3,7.5-1.5,11-0.8
	C197.1,129.8,201.7,131.1,199.8,132.8 M204.6,124.5c1.3,1.4,2.2,3.2,2.1,5.2c-0.1,1.8-1,3.5-2.2,4.9c-2.1,2.6-4.9,3.9-7.9,5.1
	c-7.6,2.9-15.6,3.7-23.7,3.3c0,1.9,0.3,3.8,1.6,5.3c1.1,1.2,2.8,1.7,4.4,1.8c4.5,0.3,9.2-1.3,13.3-2.9c4.3-1.6,8.5-3.5,12.9-5.2
	c1.2-0.4,2.5-1,3.8-1c1.5,0,1.1,2,0.8,3c-1,2.9-3.6,5.1-6,6.8c-2.6,1.9-5.4,3.6-8.3,5.1c-3.3,1.8-6.8,3.4-10.4,4.7
	c-4.3,1.5-9.2,2.5-13.8,1.6c-3.5-0.8-6.5-2.9-8.1-6.2c-1.5-3.1-1.6-6.7-0.7-10c1.1-4.2,3.9-8,6.8-11.1c2.9-3.1,6.2-5.8,9.9-7.9
	c4.2-2.4,8.8-4.3,13.6-5.1C196.7,121.2,201.8,121,204.6,124.5"/>
</svg>
